<?xml version="1.0" encoding="utf-8"?>
<!-- Generator: Adobe Illustrator 23.0.1, SVG Export Plug-In . SVG Version: 6.00 Build 0)  -->
<svg version="1.1" id="Layer_1" xmlns="http://www.w3.org/2000/svg" xmlns:xlink="http://www.w3.org/1999/xlink" x="0px" y="0px"
	 viewBox="0 0 24 24" style="enable-background:new 0 0 24 24;" xml:space="preserve">
<style type="text/css">
	.st0{fill:#FFFFFF;}
	.st1{fill:none;}
</style>
<path class="st0" d="M9.5,15.5v-0.8l0.3-0.3c1.2,1,2.7,1.6,4.2,1.6c3.6,0,6.5-2.9,6.5-6.5S17.6,3,14,3S7.5,5.9,7.5,9.5
	c0,1.6,0.6,3.1,1.6,4.2L8.8,14H8l-5,5l1.5,1.5L9.5,15.5z M9.5,9.5C9.5,7,11.5,5,14,5s4.5,2,4.5,4.5S16.5,14,14,14S9.5,12,9.5,9.5z"
	/>
<path class="st1" d="M0,0h24v24H0V0z"/>
</svg>
